# xmcd
#
# Track frame offsets:
#   150
#   15272
#   29305
#   43973
#   56888
#   69062
#   81814
#   94854
#   108397
#   123202
#   138993
#   152599
#   167085
#   181759
#   195416
#   207392
#   220732
#   235165
#   245809
#   259613
#   271973
#   287287
#   300489
#   314732
#
# Disc length: 4385 seconds
#
# Revision: 0
# Processed by: cddbd v1.5.2PL0 Copyright (c) Steve Scherf et al.
# Submitted via: uFREEDB ActiveX Control 1.5
#
DISCID=47111f18
DTITLE=Varios - Os reis do batidão
DYEAR=2011
DGENRE=Country
TTITLE0=Ta no papo
TTITLE1=Fiquei louco
TTITLE2=Muído de Paixão
TTITLE3=Chora nenê
TTITLE4=Com dinheiro e mole
TTITLE5=Maria vai com as outras
TTITLE6=vida Louca
TTITLE7=bocão no pau
TTITLE8=Ai é só bebê
TTITLE9=Quem ama cuida
TTITLE10=Um arrastão no meu coração
TTITLE11=Mulher do meu vizinho
TTITLE12=Encho a cara e choro
TTITLE13=Coice de amor
TTITLE14=Vou virar uma latinha
TTITLE15=Afogo o ganso
TTITLE16=Tá na mão
TTITLE17=Fala que você me ama
TTITLE18=Doidinho de Paixão
TTITLE19=Sopra mais mulher pra mim
TTITLE20=Tô voltando
TTITLE21=Não tem paradeiro
TTITLE22=Traz mais uma ai
TTITLE23=Tô na balada
EXTD=
EXTT0=
EXTT1=
EXTT2=
EXTT3=
EXTT4=
EXTT5=
EXTT6=
EXTT7=
EXTT8=
EXTT9=
EXTT10=
EXTT11=
EXTT12=
EXTT13=
EXTT14=
EXTT15=
EXTT16=
EXTT17=
EXTT18=
EXTT19=
EXTT20=
EXTT21=
EXTT22=
EXTT23=
PLAYORDER=
